<svg data-name="Layer 1" xmlns="http://www.w3.org/2000/svg" viewBox="0 0 24 24"><rect width="24" height="24" rx="2" ry="2" fill="#168de2"/><path d="M11.76 8.19a3.89 3.89 0 012.74 1.18.56.56 0 01.55-.6h.08a.62.62 0 01.61.63v5.36a.35.35 0 00.58.31c.86-.89 1.89-4.55-.54-6.67a5.81 5.81 0 00-6.91-.54 5.22 5.22 0 00-1.75 6.26 5.28 5.28 0 006.47 2.69c1-.4 1.46.95.42 1.39a6.94 6.94 0 01-8-2.94 6.47 6.47 0 012.38-8.78 7.14 7.14 0 018.72 1.12c2.33 2.43 2.19 7-.08 8.75a1.58 1.58 0 01-2.55-1.15v-.38a3.82 3.82 0 01-2.71 1.13 4 4 0 01-3.86-3.86 4 4 0 013.86-3.9zm2.58 3.75a2.44 2.44 0 00-2.54-2.41h-.05a2.41 2.41 0 00-2.42 2.61 2.36 2.36 0 002.41 2.54 2.53 2.53 0 002.6-2.44z" fill="#ffa930" fill-rule="evenodd"/></svg>