<svg xmlns="http://www.w3.org/2000/svg" viewBox="0 0 24 24"><path d="M2 0h20c1.1 0 2 .9 2 2v20c0 1.1-.9 2-2 2H2c-1.1 0-2-.9-2-2V2C0 .9.9 0 2 0z" fill="#00aced"/><path d="M9.7 17.7c4.3.1 7.8-3.4 7.9-7.7v-.6c.5-.4 1-.9 1.4-1.4-.5.2-1 .4-1.6.4.6-.3 1-.9 1.2-1.5-.5.3-1.1.6-1.7.7-1-1.1-2.8-1.2-3.9-.1-.7.7-1 1.7-.8 2.7-2.3-.2-4.4-1.3-5.8-3-.7 1.3-.4 2.9.9 3.7-.4 0-.9-.1-1.3-.3 0 1.3.9 2.5 2.2 2.7-.4.1-.8.1-1.3 0 .4 1.1 1.4 1.9 2.6 1.9-1 .8-2.2 1.2-3.5 1.2h-.7c1.4.9 2.9 1.3 4.4 1.3" fill="#fff"/></svg>