<svg data-name="Layer 1" xmlns="http://www.w3.org/2000/svg" viewBox="0 0 24 24"><rect width="24" height="24" rx="2" ry="2" fill="#4c75a3"/><path d="M19 8.27c.1-.34 0-.59-.48-.59H17a.69.69 0 00-.69.45 13.31 13.31 0 01-2 3.25c-.37.37-.54.49-.74.49s-.25-.12-.25-.46V8.27c0-.4-.12-.59-.45-.59h-2.5A.38.38 0 0010 8c0 .38.57.47.63 1.55v2.34c0 .51-.09.61-.3.61-.54 0-1.85-2-2.63-4.25-.15-.44-.31-.62-.71-.62H5.36c-.45 0-.55.21-.55.45a12.78 12.78 0 002.51 5.28 6.2 6.2 0 004.85 2.91c1 0 1.14-.23 1.14-.62v-1.38c0-.45.1-.55.42-.55s.64.12 1.59 1c1.08 1.08 1.26 1.56 1.86 1.56h1.59c.45 0 .68-.23.55-.68A6.83 6.83 0 0018 13.78c-.37-.44-.93-.91-1.1-1.15s-.17-.44 0-.71A19.93 19.93 0 0019 8.27z" fill="#fff" fill-rule="evenodd"/></svg>