<?xml version="1.0" encoding="utf-8"?>
<!-- Generator: Adobe Illustrator 21.1.0, SVG Export Plug-In . SVG Version: 6.00 Build 0)  -->
<svg version="1.1" id="Layer_1" xmlns="http://www.w3.org/2000/svg" xmlns:xlink="http://www.w3.org/1999/xlink" x="0px" y="0px"
	 viewBox="0 0 24 24" style="enable-background:new 0 0 24 24;" xml:space="preserve">
<style type="text/css">
	.st0{fill:#ED1E24;}
	.st1{fill:#FFFFFF;}
</style>
<title>social_icons2</title>
<path class="st0" d="M2,0h20c1.1,0,2,0.9,2,2v20c0,1.1-0.9,2-2,2H2c-1.1,0-2-0.9-2-2V2C0,0.9,0.9,0,2,0z"/>
<path class="st1" d="M13.8,12.8h-0.7c-1.2,0-2.3-0.8-2.3-2.9s1-3.1,2.1-3.1h0.9V12.8z M14.9,5.7h-2C11,5.7,9.3,7.2,9.3,10
	c-0.1,1.6,0.8,3,2.2,3.7l-2.7,4.8c-0.1,0.2,0,0.3,0.1,0.3h1.2c0.1,0,0.2,0,0.2-0.1l2.4-4.7h0.9v4.7c0,0.1,0.1,0.1,0.1,0.1H15
	c0.1,0,0.1,0,0.1-0.1V5.9C15.1,5.7,15.1,5.7,14.9,5.7"/>
</svg>
